<?xml version="1.0" standalone="no"?>
<!DOCTYPE svg PUBLIC "-//W3C//DTD SVG 20010904//EN"
 "http://www.w3.org/TR/2001/REC-SVG-20010904/DTD/svg10.dtd">
<svg version="1.0" xmlns="http://www.w3.org/2000/svg"
 width="300.000000pt" height="300.000000pt" viewBox="0 0 300.000000 300.000000"
 preserveAspectRatio="xMidYMid meet">
<metadata>
Created by potrace 1.11, written by Peter Selinger 2001-2013
</metadata>
<g transform="translate(0.000000,300.000000) scale(0.100000,-0.100000)"
fill="#000000" stroke="none">
<path d="M1373 2937 c-13 -5 -23 -14 -23 -19 0 -5 -13 -14 -30 -19 -16 -6 -30
-15 -30 -19 0 -4 -10 -10 -23 -14 -13 -3 -44 -21 -70 -41 -25 -19 -52 -35 -60
-35 -8 0 -20 -7 -27 -15 -7 -8 -18 -15 -25 -15 -15 0 -112 -75 -205 -159 -25
-22 -49 -41 -55 -41 -13 0 -95 -79 -118 -114 -10 -14 -22 -24 -28 -21 -12 8
-12 84 1 159 18 113 -34 236 -101 236 -11 0 -28 4 -38 9 -35 19 -95 1 -145
-45 -28 -25 -46 -51 -45 -61 1 -10 -2 -26 -6 -37 -14 -31 -7 -249 9 -274 3 -5
-15 -12 -39 -15 -25 -4 -53 -11 -62 -16 -10 -5 -37 -14 -59 -20 -28 -7 -54
-25 -79 -52 l-37 -42 6 -86 c3 -47 8 -103 12 -124 5 -30 2 -43 -20 -71 -73
-96 -60 -296 24 -369 51 -44 74 -85 62 -111 -18 -40 -39 -151 -41 -218 -2 -68
9 -130 34 -183 8 -16 17 -46 20 -66 3 -22 19 -51 38 -72 17 -19 44 -58 60 -86
15 -29 37 -56 50 -60 24 -10 45 -28 93 -82 16 -19 43 -43 60 -55 29 -20 172
-74 198 -74 19 0 46 -33 46 -57 0 -60 -55 -123 -108 -123 -29 0 -111 -59 -143
-103 -22 -31 -29 -51 -29 -88 0 -44 2 -49 27 -56 40 -11 1561 -7 1728 4 151
11 189 22 345 95 155 74 257 168 291 268 7 19 16 40 21 47 6 7 12 56 15 110
l5 98 -50 53 -51 52 -66 0 c-41 0 -71 5 -80 13 -8 9 -15 57 -19 142 -10 185
-27 262 -88 390 -58 123 -100 187 -168 257 -47 49 -187 159 -224 176 -170 78
-204 86 -346 79 -64 -3 -136 -10 -161 -16 -24 -5 -79 -17 -121 -27 -43 -9 -78
-21 -78 -26 0 -5 -5 -6 -10 -3 -6 4 -43 -3 -82 -15 -79 -24 -76 -24 -238 20
-67 18 -119 37 -125 47 -5 8 -21 29 -34 45 -14 17 -30 51 -37 76 -7 26 -16 56
-19 68 -5 17 7 29 83 77 49 31 93 57 97 57 5 0 51 21 104 46 53 25 125 60 161
76 143 67 173 84 178 101 2 9 15 20 27 23 12 3 33 20 46 37 20 27 24 45 25
112 1 51 -3 90 -12 107 -8 15 -11 33 -9 41 6 15 -54 87 -74 87 -6 0 -15 10
-20 22 -6 17 -17 22 -47 24 -21 1 -49 -3 -61 -9z m94 -103 c1 -5 -2 -16 -7
-24 -12 -20 -35 2 -26 25 6 17 27 16 33 -1z m61 -7 c5 -24 -15 -21 -28 4 -10
18 -9 20 7 17 10 -2 19 -11 21 -21z m-133 -17 c3 -6 -1 -13 -10 -16 -19 -8
-30 0 -20 15 8 14 22 14 30 1z m-61 -36 c7 -18 0 -34 -15 -34 -5 0 -9 11 -9
25 0 28 15 34 24 9z m-107 -26 c-3 -8 -6 -5 -6 6 -1 11 2 17 5 13 3 -3 4 -12
1 -19z m-697 2 c0 -5 -4 -10 -10 -10 -5 0 -10 5 -10 10 0 6 5 10 10 10 6 0 10
-4 10 -10z m910 -5 c0 -8 -7 -15 -15 -15 -8 0 -15 7 -15 15 0 8 7 15 15 15 8
0 15 -7 15 -15z m64 -1 c9 -22 8 -24 -9 -24 -8 0 -15 9 -15 20 0 24 15 27 24
4z m-126 -26 c18 -18 14 -38 -7 -38 -20 0 -35 25 -25 41 7 12 18 11 32 -3z
m197 -8 c3 -5 1 -10 -4 -10 -6 0 -11 5 -11 10 0 6 2 10 4 10 3 0 8 -4 11 -10z
m-350 -28 c0 -18 -20 -15 -23 4 -3 10 1 15 10 12 7 -3 13 -10 13 -16z m80 8
c3 -5 1 -10 -4 -10 -6 0 -11 5 -11 10 0 6 2 10 4 10 3 0 8 -4 11 -10z m-235
-30 c0 -21 -15 -27 -25 -10 -7 12 2 30 16 30 5 0 9 -9 9 -20z m218 -28 c2 -7
-6 -12 -17 -12 -21 0 -27 11 -14 24 9 9 26 2 31 -12z m76 2 c4 -9 4 -19 2 -21
-9 -10 -46 9 -46 23 0 19 36 18 44 -2z m60 0 c9 -3 16 -13 16 -21 0 -20 -34
-12 -38 10 -4 19 -1 20 22 11z m-214 -19 c14 -16 6 -35 -16 -35 -8 0 -14 10
-14 25 0 28 12 32 30 10z m-255 -5 c3 -5 -1 -10 -10 -10 -9 0 -13 5 -10 10 3
6 8 10 10 10 2 0 7 -4 10 -10z m105 0 c0 -5 -4 -10 -10 -10 -5 0 -10 5 -10 10
0 6 5 10 10 10 6 0 10 -4 10 -10z m80 -21 c0 -5 -7 -9 -15 -9 -15 0 -20 12 -9
23 8 8 24 -1 24 -14z m420 -9 c0 -5 -4 -10 -10 -10 -5 0 -10 5 -10 10 0 6 5
10 10 10 6 0 10 -4 10 -10z m-69 -33 c-6 -6 -17 -4 -30 5 -27 19 -16 30 15 16
15 -7 21 -15 15 -21z m-581 13 c0 -5 -5 -10 -11 -10 -5 0 -7 5 -4 10 3 6 8 10
11 10 2 0 4 -4 4 -10z m100 1 c0 -12 -29 -23 -41 -15 -5 3 -7 10 -4 15 8 12
45 12 45 0z m267 3 c-3 -3 -12 -4 -19 -1 -8 3 -5 6 6 6 11 1 17 -2 13 -5z
m124 -9 c-1 -15 -24 -12 -29 3 -3 9 2 13 12 10 10 -1 17 -7 17 -13z m-183 -17
c18 -18 15 -38 -5 -38 -28 0 -47 16 -40 34 8 19 28 21 45 4z m-90 -14 c18 -13
21 -19 11 -30 -16 -20 -36 -17 -49 6 -11 20 -6 40 8 40 4 0 18 -7 30 -16z
m229 -12 c-10 -2 -26 -1 -35 3 -14 5 -14 8 -2 15 8 5 22 4 34 -3 19 -10 20
-11 3 -15z m-517 8 c0 -5 -7 -10 -16 -10 -8 0 -12 5 -9 10 3 6 10 10 16 10 5
0 9 -4 9 -10z m71 -5 c0 -13 -41 -19 -41 -7 0 11 20 22 33 18 5 -1 8 -6 8 -11z
m99 -5 c0 -5 -4 -10 -10 -10 -5 0 -10 5 -10 10 0 6 5 10 10 10 6 0 10 -4 10
-10z m40 -9 c0 -10 -7 -24 -15 -31 -13 -10 -15 -9 -15 12 0 14 3 28 7 31 12
13 23 7 23 -12z m375 -2 c10 -15 -1 -23 -20 -15 -9 3 -13 10 -10 16 8 13 22
13 30 -1z m-485 -18 c0 -15 -29 -33 -41 -25 -9 5 -7 11 6 21 22 15 35 17 35 4z
m-82 -34 c3 -28 -9 -34 -42 -21 -20 8 -20 18 0 39 22 21 38 14 42 -18z m420
15 c2 -7 -6 -12 -17 -12 -21 0 -27 11 -14 24 9 9 26 2 31 -12z m-68 -6 c0 -24
-16 -27 -35 -6 -18 19 -17 20 8 20 17 0 27 -5 27 -14z m150 -1 c0 -8 -9 -15
-20 -15 -22 0 -27 15 -7 23 21 9 27 7 27 -8z m-351 -36 c-13 -25 -39 -25 -39
0 0 20 17 31 37 24 9 -4 10 -10 2 -24z m119 14 c5 -17 -26 -29 -40 -15 -6 6
-7 15 -3 22 9 14 37 9 43 -7z m-88 -33 c0 -5 -4 -10 -10 -10 -5 0 -10 5 -10
10 0 6 5 10 10 10 6 0 10 -4 10 -10z m-229 -20 c10 -6 19 -15 19 -20 0 -17
-26 -11 -45 10 -20 22 -7 27 26 10z m114 -11 c6 -6 3 -15 -7 -26 -14 -13 -20
-14 -32 -3 -9 7 -16 21 -16 32 0 15 5 18 23 13 12 -4 26 -11 32 -16z m135 -9
c0 -5 -7 -10 -16 -10 -8 0 -12 5 -9 10 3 6 10 10 16 10 5 0 9 -4 9 -10z m-330
-32 c0 -6 -7 -7 -16 -4 -9 3 -18 6 -20 6 -3 0 -3 4 1 10 7 11 35 2 35 -12z
m263 -13 c1 -5 -6 -11 -15 -13 -11 -2 -18 3 -18 13 0 17 30 18 33 0z m-128
-38 c0 -26 -20 -25 -23 2 -3 16 1 22 10 19 7 -3 13 -12 13 -21z m-157 -14 c6
-19 -25 -16 -32 3 -4 11 -1 14 11 12 9 -2 18 -9 21 -15z m216 8 c3 -5 -1 -14
-8 -20 -16 -13 -32 2 -21 19 8 12 22 13 29 1z m-787 -33 c-3 -8 -6 -5 -6 6 -1
11 2 17 5 13 3 -3 4 -12 1 -19z m616 -55 c-3 -7 -9 -13 -14 -13 -14 0 -22 27
-15 47 6 15 8 14 20 -3 8 -10 12 -24 9 -31z m-543 27 c0 -5 -7 -10 -16 -10 -8
0 -12 5 -9 10 3 6 10 10 16 10 5 0 9 -4 9 -10z m93 -20 c6 -23 -3 -26 -21 -8
-16 16 -15 28 2 28 7 0 16 -9 19 -20z m67 -24 c0 -7 -9 -16 -20 -19 -22 -6
-29 18 -7 26 21 9 27 7 27 -7z m60 -1 c0 -8 -4 -15 -9 -15 -13 0 -22 16 -14
24 11 11 23 6 23 -9z m255 -15 c3 -5 -1 -10 -10 -10 -9 0 -13 5 -10 10 3 6 8
10 10 10 2 0 7 -4 10 -10z m-175 -13 c0 -19 -10 -27 -26 -20 -21 8 -17 33 6
33 11 0 20 -6 20 -13z m-204 -8 c8 -13 -32 -56 -42 -46 -9 9 12 57 25 57 5 0
13 -5 17 -11z m314 -9 c0 -11 -7 -20 -15 -20 -8 0 -15 9 -15 20 0 11 7 20 15
20 8 0 15 -9 15 -20z m-210 -30 c0 -12 -28 -25 -36 -17 -9 9 6 27 22 27 8 0
14 -5 14 -10z m317 -24 c-7 -17 -57 -23 -57 -7 0 6 10 17 22 25 25 18 44 7 35
-18z m-277 17 c0 -5 -4 -15 -10 -23 -11 -18 -25 -7 -17 15 6 15 27 21 27 8z
m330 -28 c0 -8 -4 -15 -10 -15 -5 0 -10 7 -10 15 0 8 5 15 10 15 6 0 10 -7 10
-15z m-520 -15 c0 -11 -2 -20 -4 -20 -2 0 -11 -3 -20 -6 -19 -7 -22 16 -4 34
18 18 28 15 28 -8z m81 -1 c25 -13 16 -29 -17 -29 -23 0 -32 18 -17 33 8 9 11
9 34 -4z m176 -23 c-4 -9 -11 -16 -17 -16 -11 0 -14 33 -3 44 11 10 26 -11 20
-28z m123 15 c0 -28 -24 -45 -40 -26 -16 20 -6 45 20 45 13 0 20 -7 20 -19z
m-80 -31 c0 -5 -4 -10 -10 -10 -5 0 -10 5 -10 10 0 6 5 10 10 10 6 0 10 -4 10
-10z m160 -32 c0 -12 -28 -10 -35 2 -4 6 -4 19 0 28 6 16 8 15 21 -2 8 -11 14
-23 14 -28z m30 22 c0 -5 -4 -10 -10 -10 -5 0 -10 5 -10 10 0 6 5 10 10 10 6
0 10 -4 10 -10z m-325 -10 c3 -5 2 -10 -4 -10 -5 0 -13 5 -16 10 -3 6 -2 10 4
10 5 0 13 -4 16 -10z m-140 -10 c9 -15 -14 -50 -34 -50 -29 0 -32 12 -9 37 23
25 34 28 43 13z m100 0 c10 -16 -5 -50 -21 -50 -15 0 -18 18 -8 44 7 18 20 21
29 6z m125 -26 c0 -31 -23 -28 -28 4 -2 15 2 22 12 22 11 0 16 -9 16 -26z
m260 -4 c0 -5 -7 -10 -15 -10 -8 0 -15 5 -15 10 0 6 7 10 15 10 8 0 15 -4 15
-10z m65 -20 c18 -19 17 -20 -3 -20 -12 0 -22 2 -22 4 0 2 -3 11 -6 20 -9 22
9 20 31 -4z m-645 0 c0 -5 -7 -10 -15 -10 -8 0 -15 5 -15 10 0 6 7 10 15 10 8
0 15 -4 15 -10z m270 -11 c0 -5 -4 -9 -10 -9 -5 0 -10 7 -10 16 0 8 5 12 10 9
6 -3 10 -10 10 -16z m228 4 c-2 -10 -10 -18 -18 -18 -8 0 -16 8 -18 18 -2 12
3 17 18 17 15 0 20 -5 18 -17z m-438 -64 c0 -34 -24 -39 -40 -9 -15 28 5 67
26 49 8 -6 14 -24 14 -40z m187 36 c3 -9 3 -18 1 -21 -9 -9 -38 8 -38 22 0 19
29 18 37 -1z m137 -8 c6 -9 7 -19 3 -23 -9 -9 -37 15 -37 33 0 18 20 12 34
-10z m-235 -18 c14 -42 14 -49 -4 -49 -20 0 -47 43 -39 64 10 26 31 19 43 -15z
m558 -15 c-9 -9 -28 6 -21 18 4 6 10 6 17 -1 6 -6 8 -13 4 -17z m-99 -1 c5
-17 -26 -29 -40 -15 -6 6 -7 15 -3 22 9 14 37 9 43 -7z m197 6 c12 -19 -5 -23
-22 -6 -16 16 -16 17 -1 17 9 0 20 -5 23 -11z m-475 -14 c11 -13 11 -20 0 -40
-18 -34 -37 -31 -45 5 -10 47 17 68 45 35z m205 -20 c0 -22 -31 -33 -47 -17
-17 17 -1 44 24 40 15 -2 23 -10 23 -23z m829 0 c4 -11 -1 -15 -19 -15 -26 0
-34 15 -12 23 20 9 25 8 31 -8z m-584 -16 c0 -5 -7 -9 -15 -9 -15 0 -20 12 -9
23 8 8 24 -1 24 -14z m680 11 c0 -5 -6 -10 -14 -10 -8 0 -18 5 -21 10 -3 6 3
10 14 10 12 0 21 -4 21 -10z m-1226 -6 c20 -8 21 -40 2 -47 -15 -6 -56 18 -56
33 0 5 8 11 18 13 9 3 18 5 19 6 1 0 8 -2 17 -5z m439 -14 c6 -23 -3 -32 -22
-20 -15 8 -8 40 8 40 5 0 11 -9 14 -20z m1217 5 c10 -12 10 -15 -3 -15 -25 0
-47 11 -41 21 8 14 30 11 44 -6z m-1950 -16 c0 -11 -4 -17 -10 -14 -5 3 -10
13 -10 21 0 8 5 14 10 14 6 0 10 -9 10 -21z m64 5 c8 -20 -1 -34 -20 -34 -8 0
-14 10 -14 25 0 28 24 34 34 9z m1641 6 c-3 -5 -15 -10 -26 -10 -10 0 -19 5
-19 10 0 6 12 10 26 10 14 0 23 -4 19 -10z m-1536 -14 c11 -13 6 -66 -7 -66
-15 0 -42 36 -42 57 0 26 30 32 49 9z m289 -20 c3 -22 0 -27 -14 -24 -10 1
-17 6 -16 11 1 4 2 16 2 28 0 31 24 18 28 -15z m1142 24 c0 -5 -7 -10 -15 -10
-8 0 -15 5 -15 10 0 6 7 10 15 10 8 0 15 -4 15 -10z m280 -5 c0 -16 -9 -19
-34 -9 -25 9 -19 24 9 24 16 0 25 -6 25 -15z m-1227 -21 c-4 -10 -9 -12 -15
-6 -12 12 -1 35 12 27 5 -3 6 -13 3 -21z m332 16 c19 -7 19 -8 -5 -18 -28 -11
-40 -7 -40 14 0 15 14 17 45 4z m799 -22 c-11 -12 -21 -15 -27 -9 -16 16 0 40
23 34 20 -5 20 -6 4 -25z m-980 16 c21 -8 20 -31 -1 -42 -35 -18 -58 9 -31 36
14 14 12 14 32 6z m272 -22 c-9 -9 -37 8 -31 18 5 8 11 7 21 -1 8 -6 12 -14
10 -17z m104 24 c0 -3 -4 -8 -10 -11 -5 -3 -10 -1 -10 4 0 6 5 11 10 11 6 0
10 -2 10 -4z m160 0 c0 -3 -4 -8 -10 -11 -5 -3 -10 -1 -10 4 0 6 5 11 10 11 6
0 10 -2 10 -4z m-793 -21 c2 -6 -3 -20 -11 -30 -19 -26 -41 -7 -31 25 7 21 35
25 42 5z m703 5 c0 -5 -4 -10 -10 -10 -5 0 -10 5 -10 10 0 6 5 10 10 10 6 0
10 -4 10 -10z m35 0 c3 -5 1 -10 -4 -10 -6 0 -11 5 -11 10 0 6 2 10 4 10 3 0
8 -4 11 -10z m235 6 c0 -2 3 -12 6 -21 5 -13 2 -16 -17 -13 -31 4 -39 38 -10
38 12 0 21 -2 21 -4z m509 -9 c6 -8 8 -17 5 -20 -7 -7 -44 14 -44 25 0 13 27
9 39 -5z m-1671 -9 c7 -7 12 -15 12 -20 0 -9 -41 -48 -51 -48 -16 0 -18 34 -4
56 17 27 26 29 43 12z m1360 -15 c-4 -22 -48 -31 -48 -10 0 19 10 27 32 27 13
0 18 -6 16 -17z m240 0 c-2 -10 -10 -18 -18 -18 -8 0 -16 8 -18 18 -2 12 3 17
18 17 15 0 20 -5 18 -17z m-1707 -12 l24 -19 -28 -7 c-32 -8 -53 6 -44 29 8
21 20 20 48 -3z m479 0 c0 -21 -26 -36 -36 -20 -9 15 3 39 21 39 8 0 15 -9 15
-19z m438 1 c2 -7 -3 -12 -12 -12 -9 0 -16 7 -16 16 0 17 22 14 28 -4z m32 8
c0 -5 -4 -10 -10 -10 -5 0 -10 5 -10 10 0 6 5 10 10 10 6 0 10 -4 10 -10z
m670 -5 c10 -12 9 -16 -5 -21 -17 -7 -38 13 -29 28 8 12 20 10 34 -7z m-1860
-26 c0 -5 -7 -6 -15 -3 -8 4 -15 13 -15 21 0 13 3 13 15 3 8 -7 15 -16 15 -21z
m910 16 c0 -9 -9 -15 -25 -15 -26 0 -34 15 -12 23 23 10 37 7 37 -8z m-820
-15 c0 -22 -20 -26 -38 -8 -19 19 -14 28 13 28 18 0 25 -5 25 -20z m495 10 c3
-5 -1 -10 -9 -10 -9 0 -16 5 -16 10 0 6 4 10 9 10 6 0 13 -4 16 -10z m409 -5
c16 -12 17 -15 4 -15 -26 0 -48 11 -42 21 7 12 16 11 38 -6z m106 5 c0 -5 -7
-10 -15 -10 -8 0 -15 5 -15 10 0 6 7 10 15 10 8 0 15 -4 15 -10z m330 0 c8 -5
11 -12 8 -16 -10 -9 -38 3 -38 16 0 12 10 13 30 0z m664 -5 c17 -13 18 -15 2
-21 -18 -7 -49 13 -40 27 7 12 16 11 38 -6z m-539 -5 c3 -5 2 -10 -4 -10 -5 0
-13 5 -16 10 -3 6 -2 10 4 10 5 0 13 -4 16 -10z m225 -15 c0 -23 -18 -27 -29
-7 -6 11 -8 22 -5 25 10 9 34 -4 34 -18z m-960 0 c16 -20 1 -39 -26 -33 -27 5
-32 48 -6 48 11 0 25 -7 32 -15z m435 5 c3 -6 -5 -10 -19 -10 -14 0 -28 5 -31
10 -3 6 5 10 19 10 14 0 28 -4 31 -10z m273 -8 c3 -9 -2 -13 -14 -10 -9 1 -19
9 -22 16 -3 9 2 13 14 10 9 -1 19 -9 22 -16z m118 -10 c-8 -9 -19 -13 -22 -9
-10 9 16 38 28 31 6 -4 4 -13 -6 -22z m384 8 c0 -11 -7 -20 -15 -20 -8 0 -15
2 -15 4 0 2 -3 11 -6 20 -4 12 0 16 15 16 14 0 21 -6 21 -20z m-1867 -37 c-9
-7 -23 -13 -30 -13 -19 0 -16 31 5 46 14 11 19 10 30 -4 11 -14 10 -19 -5 -29z
m1007 21 c0 -20 -29 -30 -43 -15 -9 10 -8 16 7 26 21 16 36 11 36 -11z m172
-6 c-15 -15 -26 -4 -18 18 5 13 9 15 18 6 9 -9 9 -15 0 -24z m48 16 c0 -9 -5
-14 -12 -12 -18 6 -21 28 -4 28 9 0 16 -7 16 -16z m557 -29 c-6 -16 -29 -12
-41 8 -16 25 14 44 32 20 7 -10 11 -22 9 -28z m-1278 26 c19 -12 4 -31 -25
-31 -26 0 -31 9 -12 28 14 14 19 15 37 3z m405 -18 c7 -18 -9 -33 -36 -33 -13
0 -18 8 -18 25 0 20 5 25 24 25 13 0 27 -8 30 -17z m624 0 c-5 -25 -28 -28
-28 -4 0 12 6 21 16 21 9 0 14 -7 12 -17z m-799 -7 c9 -10 9 -16 1 -21 -12 -7
-40 11 -40 26 0 14 26 10 39 -5z m961 -27 c0 -11 -6 -19 -14 -19 -17 0 -31 34
-21 50 10 16 35 -8 35 -31z m-1795 20 c12 -19 -5 -23 -22 -6 -16 16 -16 17 -1
17 9 0 20 -5 23 -11z m190 0 c12 -19 -5 -23 -22 -6 -16 16 -16 17 -1 17 9 0
20 -5 23 -11z m332 -5 c4 -14 -10 -31 -34 -38 -28 -9 -31 9 -6 36 17 19 34 20
40 2z m123 -5 c0 -5 -7 -9 -15 -9 -15 0 -20 12 -9 23 8 8 24 -1 24 -14z m58 2
c3 -8 -1 -12 -9 -9 -7 2 -15 10 -17 17 -3 8 1 12 9 9 7 -2 15 -10 17 -17z
m242 9 c0 -5 -5 -10 -11 -10 -5 0 -7 5 -4 10 3 6 8 10 11 10 2 0 4 -4 4 -10z
m548 -12 c-2 -13 -11 -24 -20 -26 -21 -4 -24 18 -6 36 19 19 30 14 26 -10z
m528 8 c21 -22 17 -36 -11 -36 -18 0 -25 5 -25 18 0 33 14 39 36 18z m-1746
-6 c0 -5 -7 -10 -15 -10 -8 0 -15 5 -15 10 0 6 7 10 15 10 8 0 15 -4 15 -10z
m1818 -9 c3 -8 -1 -12 -9 -9 -7 2 -15 10 -17 17 -3 8 1 12 9 9 7 -2 15 -10 17
-17z m-940 -8 c2 -8 -6 -13 -22 -13 -26 0 -40 12 -29 24 11 11 46 2 51 -11z
m392 8 c0 -6 -4 -13 -10 -16 -5 -3 -10 1 -10 9 0 9 5 16 10 16 6 0 10 -4 10
-9z m120 5 c0 -3 -4 -8 -10 -11 -5 -3 -10 -1 -10 4 0 6 5 11 10 11 6 0 10 -2
10 -4z m-1242 -23 c2 -8 -5 -13 -17 -13 -12 0 -21 6 -21 16 0 18 31 15 38 -3z
m1282 -20 c0 -7 -7 -13 -15 -13 -16 0 -19 9 -9 35 5 13 8 14 15 3 5 -7 9 -19
9 -25z m259 18 c8 -14 7 -22 -5 -32 -14 -11 -18 -10 -29 5 -16 21 -9 46 11 46
7 0 18 -9 23 -19z m-1191 -7 c12 -8 22 -19 22 -23 0 -16 -30 -21 -55 -9 -27
12 -33 33 -12 41 19 8 21 8 45 -9z m466 -1 c4 -9 3 -20 -2 -25 -10 -10 -54 20
-47 33 10 15 42 10 49 -8z m91 7 c3 -5 -8 -16 -25 -25 -24 -12 -30 -13 -30 -2
0 28 41 49 55 27z m255 -5 c0 -16 -27 -32 -37 -21 -7 7 16 36 28 36 5 0 9 -7
9 -15z m-1420 -5 c0 -5 -4 -10 -10 -10 -5 0 -10 5 -10 10 0 6 5 10 10 10 6 0
10 -4 10 -10z m1265 -21 c-8 -13 -42 -11 -51 2 -3 6 -1 15 7 19 16 10 52 -7
44 -21z m445 12 c15 -29 12 -41 -10 -41 -23 0 -35 22 -26 45 8 21 23 19 36 -4z
m-1550 -16 c0 -27 -12 -32 -29 -12 -8 10 -7 17 1 25 19 19 28 14 28 -13z m290
11 c0 -14 -45 -28 -55 -18 -6 6 33 31 48 32 4 0 7 -6 7 -14z m300 -1 c0 -8 -9
-15 -20 -15 -20 0 -26 11 -13 23 12 13 33 7 33 -8z m60 6 c0 -5 -7 -14 -15
-21 -12 -10 -15 -10 -15 2 0 8 3 18 7 21 9 10 23 9 23 -2z m50 -1 c0 -5 -7
-10 -15 -10 -8 0 -15 5 -15 10 0 6 7 10 15 10 8 0 15 -4 15 -10z m1135 0 c3
-5 1 -10 -4 -10 -6 0 -11 5 -11 10 0 6 2 10 4 10 3 0 8 -4 11 -10z m-538 -34
c-8 -19 -37 -21 -37 -3 0 7 5 18 12 25 15 15 33 -1 25 -22z m-1207 5 c0 -18
-18 -21 -30 -6 -10 13 -9 15 9 15 11 0 21 -4 21 -9z m117 -6 c1 -5 -1 -16 -6
-24 -8 -12 -14 -13 -35 -3 -38 17 -34 44 6 40 17 -2 33 -7 35 -13z m123 6 c0
-5 -7 -11 -15 -15 -9 -3 -15 0 -15 9 0 8 7 15 15 15 8 0 15 -4 15 -9z m53 -3
c6 -18 -22 -58 -40 -58 -10 0 -12 6 -7 23 8 26 23 47 34 47 5 0 10 -6 13 -12z
m397 -14 c0 -14 -21 -19 -33 -7 -9 9 13 34 24 27 5 -3 9 -12 9 -20z m42 -6
c-15 -15 -26 -4 -18 18 5 13 9 15 18 6 9 -9 9 -15 0 -24z m48 16 c0 -9 -5 -14
-12 -12 -18 6 -21 28 -4 28 9 0 16 -7 16 -16z m328 4 c18 -18 14 -36 -10 -44
-27 -8 -54 22 -37 43 14 16 31 17 47 1z m272 -3 c0 -16 -27 -32 -37 -22 -3 4
-3 13 0 22 8 20 37 20 37 0z m248 -13 c3 -18 -1 -22 -22 -22 -19 0 -26 5 -26
18 0 39 43 43 48 4z m-1208 -23 c0 -11 -4 -19 -8 -19 -11 0 -32 46 -25 54 10
10 33 -15 33 -35z m1275 31 c3 -5 -1 -10 -9 -10 -9 0 -16 5 -16 10 0 6 4 10 9
10 6 0 13 -4 16 -10z m-1825 -15 c7 -8 8 -15 2 -15 -5 0 -15 7 -22 15 -7 8 -8
15 -2 15 5 0 15 -7 22 -15z m-170 -14 c0 -20 -17 -37 -27 -28 -7 8 7 47 18 47
5 0 9 -9 9 -19z m1169 5 c15 -17 -2 -56 -23 -56 -16 0 -40 45 -32 59 10 16 41
14 55 -3z m416 -11 c0 -10 -6 -20 -12 -22 -8 -3 -13 5 -13 22 0 17 5 25 13 23
6 -3 12 -13 12 -23z m265 6 c17 -34 13 -41 -20 -30 -28 10 -38 28 -23 42 12
13 32 7 43 -12z m-1580 -7 c0 -9 -7 -14 -17 -12 -25 5 -28 28 -4 28 12 0 21
-6 21 -16z m407 -4 c8 -12 9 -21 3 -25 -15 -9 -30 4 -30 26 0 24 12 24 27 -1z
m661 -4 c4 -18 -21 -46 -39 -46 -15 0 -20 41 -8 56 16 20 43 14 47 -10z
m-1261 -2 c2 -6 -5 -22 -16 -35 -25 -30 -45 -15 -35 25 5 20 12 26 27 24 11
-2 22 -8 24 -14z m63 1 c16 -19 3 -40 -16 -24 -15 13 -19 39 -5 39 5 0 14 -7
21 -15z m334 -1 c21 -21 20 -34 -2 -34 -21 0 -42 18 -42 37 0 18 25 16 44 -3z
m436 1 c0 -10 -10 -15 -30 -15 -29 0 -38 9 -23 23 13 13 53 7 53 -8z m790 5
c0 -5 -2 -10 -4 -10 -3 0 -8 5 -11 10 -3 6 -1 10 4 10 6 0 11 -4 11 -10z m304
4 c18 -7 12 -24 -10 -24 -8 0 -14 7 -14 15 0 17 2 18 24 9z m-1669 -24 c24
-27 13 -36 -25 -20 -24 10 -28 15 -19 26 15 19 23 18 44 -6z m480 11 c6 -11
-32 -41 -52 -41 -16 0 -17 22 -1 38 14 14 44 16 53 3z m955 -6 c0 -9 -9 -15
-25 -15 -24 0 -32 10 -18 23 12 13 43 7 43 -8z m-1530 -25 c0 -6 -6 -10 -12
-10 -22 0 -41 17 -34 29 8 13 46 -3 46 -19z m750 -1 c0 -26 -3 -30 -22 -27
-32 4 -35 36 -6 47 13 6 24 10 26 10 1 1 2 -13 2 -30z m518 19 c7 -7 8 -17 1
-30 -15 -27 -29 -22 -29 12 0 32 9 37 28 18z m-421 -14 c7 -19 -20 -49 -36
-40 -12 8 -15 39 -4 49 12 12 33 7 40 -9z m523 1 c0 -8 -4 -15 -10 -15 -5 0
-7 7 -4 15 4 8 8 15 10 15 2 0 4 -7 4 -15z m-1185 -5 c3 -5 1 -10 -4 -10 -6 0
-11 5 -11 10 0 6 2 10 4 10 3 0 8 -4 11 -10z m835 -6 c11 -12 11 -18 -2 -30
-12 -12 -19 -13 -41 -3 -26 12 -34 29 -20 42 12 13 50 7 63 -9z m190 0 c0 -8
-4 -12 -10 -9 -5 3 -10 10 -10 16 0 5 5 9 10 9 6 0 10 -7 10 -16z m494 0 c16
-15 21 -34 11 -34 -14 0 -65 32 -65 40 0 16 37 12 54 -6z m-1046 -13 c3 -8 -1
-12 -9 -9 -7 2 -15 10 -17 17 -3 8 1 12 9 9 7 -2 15 -10 17 -17z m520 -9 c3
-19 -1 -23 -15 -20 -10 2 -19 14 -21 26 -3 19 1 23 15 20 10 -2 19 -14 21 -26z
m599 2 c-9 -9 -28 6 -21 18 4 6 10 6 17 -1 6 -6 8 -13 4 -17z m-1887 1 c0 -9
-6 -12 -15 -9 -8 4 -15 10 -15 15 0 5 7 9 15 9 8 0 15 -7 15 -15z m73 1 c23
-18 21 -28 -5 -24 -13 2 -24 11 -26 21 -4 20 6 21 31 3z m97 -7 c0 -5 -7 -9
-15 -9 -15 0 -20 12 -9 23 8 8 24 -1 24 -14z m320 6 c10 -12 10 -18 0 -30 -16
-19 -39 -19 -46 0 -6 15 11 45 26 45 4 0 13 -7 20 -15z m119 2 c8 -10 5 -19
-10 -36 l-22 -23 -20 20 c-11 12 -17 27 -14 36 8 19 50 21 66 3z m1351 9 c0
-3 -4 -8 -10 -11 -5 -3 -10 -1 -10 4 0 6 5 11 10 11 6 0 10 -2 10 -4z m-1557
-24 c20 -21 13 -32 -18 -32 -30 0 -49 22 -33 38 17 17 32 15 51 -6z m1177 9
c0 -12 -20 -25 -27 -18 -7 7 6 27 18 27 5 0 9 -4 9 -9z m140 -6 c0 -9 -9 -15
-25 -15 -24 0 -32 10 -18 23 12 13 43 7 43 -8z m-1850 -2 c-1 -11 -26 -43 -34
-43 -10 0 -7 25 6 38 13 13 28 16 28 5z m405 -3 c3 -5 -1 -10 -10 -10 -9 0
-13 5 -10 10 3 6 8 10 10 10 2 0 7 -4 10 -10z m453 -9 c3 -8 -1 -12 -9 -9 -7
2 -15 10 -17 17 -3 8 1 12 9 9 7 -2 15 -10 17 -17z m712 4 c0 -8 -7 -15 -16
-15 -14 0 -14 3 -4 15 7 8 14 15 16 15 2 0 4 -7 4 -15z m-405 -15 c0 -16 -61
-37 -73 -26 -10 11 38 47 57 44 9 -2 16 -10 16 -18z m140 10 c3 -5 -3 -10 -15
-10 -12 0 -18 5 -15 10 3 6 10 10 15 10 5 0 12 -4 15 -10z m455 -10 c0 -11 -6
-20 -14 -20 -18 0 -29 16 -21 30 11 18 35 11 35 -10z m-1695 -11 c0 -7 -8 -15
-17 -17 -18 -3 -25 18 -11 32 10 10 28 1 28 -15z m105 6 c0 -9 -6 -12 -15 -9
-8 4 -15 10 -15 15 0 5 7 9 15 9 8 0 15 -7 15 -15z m650 5 c0 -5 -6 -10 -14
-10 -8 0 -18 5 -21 10 -3 6 3 10 14 10 12 0 21 -4 21 -10z m140 -5 c15 -18 6
-45 -13 -45 -20 0 -40 27 -33 45 7 19 30 19 46 0z m101 -1 c11 -14 10 -19 -10
-35 -38 -31 -58 -19 -47 27 7 28 37 32 57 8z m419 6 c0 -5 -4 -10 -10 -10 -5
0 -10 5 -10 10 0 6 5 10 10 10 6 0 10 -4 10 -10z m130 0 c0 -5 -7 -10 -15 -10
-8 0 -15 5 -15 10 0 6 7 10 15 10 8 0 15 -4 15 -10z m-1300 -4 c0 -3 -4 -8
-10 -11 -5 -3 -10 -1 -10 4 0 6 5 11 10 11 6 0 10 -2 10 -4z m130 -16 c0 -11
-7 -20 -15 -20 -15 0 -21 21 -8 33 12 13 23 7 23 -13z m1490 -10 c0 -6 -6 -10
-14 -10 -16 0 -38 24 -30 33 9 8 44 -11 44 -23z m68 18 c14 -14 16 -38 3 -38
-15 0 -42 31 -36 41 8 12 19 11 33 -3z m-1638 -12 c0 -25 -12 -46 -25 -46 -21
0 -27 17 -13 40 15 23 38 27 38 6z m422 -3 c23 -21 23 -33 -1 -33 -22 0 -45
25 -36 40 9 14 15 13 37 -7z m618 8 c0 -6 -4 -13 -10 -16 -5 -3 -10 1 -10 9 0
9 5 16 10 16 6 0 10 -4 10 -9z m-163 -7 c-3 -3 -12 -4 -19 -1 -8 3 -5 6 6 6
11 1 17 -2 13 -5z m408 -4 c-3 -5 -11 -10 -16 -10 -6 0 -7 5 -4 10 3 6 11 10
16 10 6 0 7 -4 4 -10z m-1481 -21 c-7 -11 -34 -12 -34 -1 0 14 11 21 26 15 8
-3 11 -9 8 -14z m96 -5 c0 -8 -2 -14 -4 -14 -2 0 -11 -3 -20 -6 -11 -4 -16 0
-16 14 0 20 18 33 33 25 4 -2 7 -11 7 -19z m1068 14 c-6 -18 -28 -21 -28 -4 0
9 7 16 16 16 9 0 14 -5 12 -12z m362 -2 c0 -16 -18 -31 -27 -22 -8 8 5 36 17
36 5 0 10 -6 10 -14z m450 10 c0 -3 -4 -8 -10 -11 -5 -3 -10 -1 -10 4 0 6 5
11 10 11 6 0 10 -2 10 -4z m-2256 -21 c-4 -8 -8 -15 -10 -15 -2 0 -4 7 -4 15
0 8 4 15 10 15 5 0 7 -7 4 -15z m766 0 c16 -19 3 -40 -16 -24 -15 13 -19 39
-5 39 5 0 14 -7 21 -15z m1203 0 c5 -12 -10 -34 -16 -24 -2 2 -9 12 -16 22
-12 15 -11 17 7 17 11 0 22 -7 25 -15z m222 -5 c3 -11 3 -25 0 -30 -10 -16
-35 8 -35 31 0 25 27 24 35 -1z m-1975 -8 c0 -10 -6 -27 -14 -38 -12 -15 -17
-16 -27 -7 -10 10 -10 18 -1 38 13 29 42 34 42 7z m600 8 c0 -5 -5 -10 -11
-10 -5 0 -7 5 -4 10 3 6 8 10 11 10 2 0 4 -4 4 -10z m785 1 c3 -5 1 -12 -5
-16 -5 -3 -10 1 -10 9 0 18 6 21 15 7z m110 0 c10 -18 -17 -23 -33 -7 -15 15
-15 16 5 16 12 0 24 -4 28 -9z m-1645 -8 c0 -5 -4 -15 -10 -23 -11 -18 -25 -7
-17 15 6 15 27 21 27 8z m568 -26 c2 -19 -1 -27 -12 -27 -20 0 -29 16 -21 41
9 27 29 19 33 -14z m383 23 c5 0 9 -6 9 -14 0 -21 -42 -28 -60 -10 -13 13 -13
16 0 24 8 5 21 8 28 5 8 -3 18 -5 23 -5z m349 -5 c0 -8 -9 -15 -20 -15 -20 0
-26 11 -13 23 12 13 33 7 33 -8z m-690 -20 c0 -14 -4 -25 -10 -25 -5 0 -10 11
-10 25 0 14 5 25 10 25 6 0 10 -11 10 -25z m50 -1 c0 -8 -4 -14 -10 -14 -5 0
-10 9 -10 21 0 11 5 17 10 14 6 -3 10 -13 10 -21z m1130 16 c0 -12 -28 -25
-36 -17 -9 9 6 27 22 27 8 0 14 -5 14 -10z m85 -28 c-9 -9 -35 8 -35 24 0 16
2 16 20 -1 11 -10 18 -20 15 -23z m-1805 5 c0 -23 -17 -47 -32 -47 -10 0 -11
54 -1 63 14 15 33 6 33 -16z m163 8 c-1 -5 -8 -14 -17 -20 -18 -11 -42 7 -31
25 8 13 51 9 48 -5z m107 6 c0 -5 -6 -14 -14 -20 -16 -13 -32 2 -21 19 8 12
35 13 35 1z m700 -5 c0 -8 -7 -16 -15 -20 -15 -5 -21 14 -8 27 11 12 23 8 23
-7z m359 1 c8 -10 7 -17 -1 -25 -26 -26 -60 -4 -38 23 15 18 24 19 39 2z
m-933 -26 c-10 -16 -36 -13 -36 3 0 17 21 27 34 16 4 -5 5 -13 2 -19z m312 7
c2 -9 -6 -18 -17 -21 -26 -6 -33 1 -20 25 12 22 32 19 37 -4z m928 8 c15 -12
16 -17 7 -27 -10 -10 -15 -9 -28 1 -16 13 -21 40 -7 40 5 0 17 -6 28 -14z
m114 -7 c0 -5 -4 -9 -10 -9 -5 0 -10 7 -10 16 0 8 5 12 10 9 6 -3 10 -10 10
-16z m-200 -9 c0 -11 -7 -20 -15 -20 -8 0 -15 9 -15 20 0 11 7 20 15 20 8 0
15 -9 15 -20z m360 5 c0 -8 -4 -15 -9 -15 -5 0 -11 7 -15 15 -3 9 0 15 9 15 8
0 15 -7 15 -15z m50 0 c0 -8 -4 -15 -10 -15 -5 0 -10 7 -10 15 0 8 5 15 10 15
6 0 10 -7 10 -15z m168 -9 c3 -13 -1 -17 -14 -14 -11 2 -20 11 -22 22 -3 13 1
17 14 14 11 -2 20 -11 22 -22z m-1318 -10 c0 -32 -23 -51 -39 -32 -17 20 -4
56 20 56 13 0 19 -7 19 -24z m650 3 c11 -20 -1 -49 -21 -49 -13 0 -31 40 -25
56 8 21 34 17 46 -7z m540 11 c0 -5 -2 -10 -4 -10 -3 0 -8 5 -11 10 -3 6 -1
10 4 10 6 0 11 -4 11 -10z m-130 -21 c10 -18 9 -20 -7 -17 -10 2 -19 11 -21
21 -5 24 15 21 28 -4z m-1580 7 c0 -3 -4 -8 -10 -11 -5 -3 -10 -1 -10 4 0 6 5
11 10 11 6 0 10 -2 10 -4z m600 0 c0 -11 -19 -15 -25 -6 -3 5 1 10 9 10 9 0
16 -2 16 -4z m277 -13 c-9 -9 -19 -14 -23 -11 -10 10 6 28 24 28 15 0 15 -1
-1 -17z m63 12 c0 -12 -24 -55 -32 -55 -11 0 -10 17 2 41 9 17 30 27 30 14z
m350 -5 c0 -5 -4 -10 -10 -10 -5 0 -10 5 -10 10 0 6 5 10 10 10 6 0 10 -4 10
-10z m210 0 c0 -5 -4 -10 -10 -10 -5 0 -10 5 -10 10 0 6 5 10 10 10 6 0 10 -4
10 -10z m-1455 -31 c0 -15 -7 -25 -18 -27 -22 -4 -33 24 -17 43 18 21 35 13
35 -16z m83 19 c-3 -7 -12 -14 -21 -16 -12 -2 -15 1 -11 12 7 19 38 22 32 4z
m218 -9 c3 -6 -3 -20 -14 -32 -19 -19 -22 -19 -28 -4 -13 35 23 66 42 36z m84
-10 c0 -5 -9 -9 -20 -9 -22 0 -27 16 -7 23 15 5 27 -1 27 -14z m355 12 c10
-17 -12 -21 -25 -6 -10 12 -10 15 3 15 9 0 18 -4 22 -9z m181 -28 c-11 -11
-19 6 -11 24 8 17 8 17 12 0 3 -10 2 -21 -1 -24z m-1301 -3 c0 -13 -6 -25 -12
-27 -9 -3 -13 6 -13 27 0 21 4 30 13 28 6 -3 12 -15 12 -28z m83 -8 c2 -18 -1
-32 -8 -32 -13 0 -32 48 -24 61 11 19 29 2 32 -29z m179 22 c5 -14 -38 -27
-50 -15 -5 5 -6 14 -2 21 8 14 47 9 52 -6z m235 -16 c-15 -15 -26 -4 -18 18 5
13 9 15 18 6 9 -9 9 -15 0 -24z m68 13 c0 -24 -18 -37 -31 -24 -13 13 -1 43
17 43 8 0 14 -9 14 -19z m50 -8 c0 -20 -24 -11 -28 10 -2 12 1 15 12 11 9 -3
16 -13 16 -21z m1150 6 c0 -15 -5 -20 -22 -17 -34 5 -37 38 -4 38 20 0 26 -5
26 -21z m235 -27 c8 -29 -20 -41 -43 -19 -13 14 -14 21 -3 43 10 23 14 25 25
13 8 -8 17 -24 21 -37z m-1851 29 c3 -5 -1 -14 -8 -20 -16 -13 -32 2 -21 19 8
12 22 13 29 1z m1275 -5 c9 -10 7 -17 -5 -27 -14 -11 -18 -10 -30 5 -23 32 10
52 35 22z m155 8 c9 -3 16 -17 16 -30 0 -19 -5 -24 -25 -24 -20 0 -25 5 -25
23 0 34 8 41 34 31z m264 -12 c3 -9 -2 -13 -14 -10 -9 1 -19 9 -22 16 -3 9 2
13 14 10 9 -1 19 -9 22 -16z m286 -3 c-3 -5 -10 -7 -15 -3 -5 3 -7 10 -3 15 3
5 10 7 15 3 5 -3 7 -10 3 -15z m-1036 -6 c2 -8 -6 -13 -22 -13 -17 0 -26 5
-26 16 0 19 41 16 48 -3z m100 -5 c18 -24 -4 -58 -38 -58 -25 0 -30 4 -30 23
0 41 44 63 68 35z m152 8 c0 -16 -14 -36 -26 -36 -14 0 -19 22 -7 33 7 8 33
10 33 3z m340 -11 c13 -16 6 -35 -15 -35 -15 0 -45 27 -45 41 0 15 46 10 60
-6z m-1235 -5 c3 -5 -1 -10 -9 -10 -9 0 -16 5 -16 10 0 6 4 10 9 10 6 0 13 -4
16 -10z m325 -25 c0 -8 -4 -15 -9 -15 -15 0 -42 31 -35 41 8 13 44 -8 44 -26z
m1293 28 c9 -9 -13 -34 -24 -27 -14 8 -11 34 4 34 8 0 17 -3 20 -7z m-1754
-55 c-8 -15 -13 -17 -25 -7 -17 14 -18 46 -1 52 20 8 38 -23 26 -45z m541 -1
c0 -13 -6 -18 -22 -15 -27 4 -35 32 -17 54 12 14 14 14 26 -2 7 -10 13 -26 13
-37z m-682 31 c-6 -18 -28 -21 -28 -4 0 9 7 16 16 16 9 0 14 -5 12 -12z m842
-2 c0 -18 -17 -29 -30 -21 -8 5 -7 11 1 21 15 18 29 18 29 0z m266 -11 c18
-27 12 -45 -15 -45 -26 0 -44 25 -36 50 9 27 31 25 51 -5z m554 15 c12 -7 12
-12 3 -21 -9 -9 -16 -9 -28 1 -29 24 -9 42 25 20z m88 -28 c-2 -9 -10 -18 -19
-20 -19 -3 -31 21 -23 43 8 21 46 0 42 -23z m-845 13 c1 -5 -10 -11 -25 -13
-16 -2 -28 1 -28 7 0 20 49 26 53 6z m425 -8 c2 -12 -3 -17 -17 -17 -12 0 -21
6 -21 13 0 31 32 34 38 4z m637 13 c3 -5 -1 -10 -9 -10 -9 0 -16 5 -16 10 0 6
4 10 9 10 6 0 13 -4 16 -10z m-1707 -18 c3 -9 -2 -13 -14 -10 -9 1 -19 9 -22
16 -3 9 2 13 14 10 9 -1 19 -9 22 -16z m292 8 c0 -5 -4 -10 -10 -10 -5 0 -10
5 -10 10 0 6 5 10 10 10 6 0 10 -4 10 -10z m1039 -8 c6 -10 6 -24 1 -32 -7
-12 -12 -11 -29 4 -12 11 -21 25 -21 33 0 19 38 16 49 -5z m-1705 -8 c8 -20 8
-24 -1 -24 -17 0 -35 19 -29 29 10 16 23 14 30 -5z m1278 -6 c-7 -7 -12 -8
-12 -2 0 14 12 26 19 19 2 -3 -1 -11 -7 -17z m715 -4 c-9 -9 -28 6 -21 18 4 6
10 6 17 -1 6 -6 8 -13 4 -17z m-1539 -1 c2 -8 -6 -13 -22 -13 -25 0 -33 10
-19 24 10 10 36 3 41 -11z m110 5 c-5 -15 -68 -24 -68 -10 0 15 13 22 43 22
18 0 27 -4 25 -12z m312 8 c0 -3 -4 -8 -10 -11 -5 -3 -10 -1 -10 4 0 6 5 11
10 11 6 0 10 -2 10 -4z m-520 -41 c0 -8 -4 -15 -8 -15 -13 0 -32 23 -32 37 0
11 5 11 20 3 11 -6 20 -17 20 -25z m273 28 c-7 -2 -19 -2 -25 0 -7 3 -2 5 12
5 14 0 19 -2 13 -5z m417 -2 c0 -11 -31 -24 -39 -16 -3 3 1 10 9 15 19 12 30
12 30 1z m296 -2 c10 -17 -13 -36 -27 -22 -12 12 -4 33 11 33 5 0 12 -5 16
-11z m194 -8 c0 -10 -7 -24 -16 -32 -13 -10 -17 -10 -25 2 -18 28 -9 49 23 49
11 0 18 -7 18 -19z m87 -15 c-4 -9 -11 -16 -17 -16 -17 0 -24 31 -9 41 18 11
34 -5 26 -25z m-1687 9 c0 -8 -4 -15 -9 -15 -13 0 -22 16 -14 24 11 11 23 6
23 -9z m1218 -2 c12 -20 -5 -63 -23 -63 -22 0 -38 29 -31 55 7 29 40 34 54 8z
m287 7 c3 -6 -1 -13 -10 -16 -19 -8 -30 0 -20 15 8 14 22 14 30 1z m335 0 c0
-5 -7 -7 -15 -4 -8 4 -15 8 -15 10 0 2 7 4 15 4 8 0 15 -4 15 -10z m140 -16
c0 -31 -23 -28 -28 4 -2 15 2 22 12 22 11 0 16 -9 16 -26z m-1800 -15 c0 -10
-4 -19 -10 -19 -5 0 -10 12 -10 26 0 14 4 23 10 19 6 -3 10 -15 10 -26z m625
7 c14 -21 12 -56 -4 -56 -14 0 -51 32 -51 44 0 13 20 36 32 36 4 0 14 -11 23
-24z m1241 -11 c-7 -18 -26 -20 -26 -2 0 18 24 41 28 27 2 -6 1 -17 -2 -25z
m134 25 c0 -5 -4 -10 -10 -10 -5 0 -10 5 -10 10 0 6 5 10 10 10 6 0 10 -4 10
-10z m-1900 -8 c0 -13 -12 -22 -22 -16 -10 6 -1 24 13 24 5 0 9 -4 9 -8z m450
-17 c0 -21 -17 -27 -40 -15 -25 13 -26 27 -2 32 24 6 42 -2 42 -17z m292 -7
c-9 -9 -12 -7 -12 12 0 19 3 21 12 12 9 -9 9 -15 0 -24z m-644 3 c3 -8 -1 -12
-9 -9 -7 2 -15 10 -17 17 -3 8 1 12 9 9 7 -2 15 -10 17 -17z m602 15 c0 -3 -4
-8 -10 -11 -5 -3 -10 -1 -10 4 0 6 5 11 10 11 6 0 10 -2 10 -4z m130 -26 c-19
-12 -40 -13 -40 0 0 5 8 13 18 19 22 13 44 -5 22 -19z m718 6 c3 -15 0 -17
-20 -11 -30 10 -31 11 -23 25 10 17 39 8 43 -14z m297 6 c0 -18 -20 -15 -23 4
-3 10 1 15 10 12 7 -3 13 -10 13 -16z m-1797 -14 c2 -9 -4 -18 -13 -21 -11 -5
-15 0 -15 19 0 28 23 29 28 2z m184 10 c-9 -9 -15 -9 -24 0 -9 9 -7 12 12 12
19 0 21 -3 12 -12z m78 8 c0 -3 -4 -8 -10 -11 -5 -3 -10 -1 -10 4 0 6 5 11 10
11 6 0 10 -2 10 -4z m720 -25 c0 -32 -33 -52 -53 -32 -16 16 8 61 33 61 15 0
20 -7 20 -29z m603 17 c5 -16 -10 -48 -23 -48 -11 0 -14 43 -3 53 10 11 21 8
26 -5z m-1787 -15 c18 -24 17 -43 -1 -43 -14 0 -35 29 -35 49 0 17 21 13 36
-6z m1384 8 c0 -14 -18 -23 -30 -16 -6 4 -8 11 -5 16 8 12 35 12 35 0z m-1450
-17 c0 -17 -22 -14 -28 4 -2 7 3 12 12 12 9 0 16 -7 16 -16z m500 1 c0 -8 -4
-15 -10 -15 -5 0 -10 7 -10 15 0 8 5 15 10 15 6 0 10 -7 10 -15z m70 2 c0 -14
-20 -37 -32 -37 -12 0 -10 24 4 38 16 16 28 15 28 -1z m770 -5 c0 -21 -33 -56
-43 -45 -11 10 -8 38 5 51 18 18 38 14 38 -6z m256 -37 c-7 -20 -35 -16 -49 7
-8 12 -7 21 3 33 12 15 15 15 33 -4 12 -11 17 -26 13 -36z m91 28 c6 -16 -26
-43 -42 -37 -20 8 -19 31 3 43 20 12 34 10 39 -6z m-1375 -8 c0 -5 -5 -11 -11
-13 -6 -2 -11 4 -11 13 0 9 5 15 11 13 6 -2 11 -8 11 -13z m91 -38 c-8 -13
-33 14 -33 37 0 20 1 20 19 -4 11 -13 17 -28 14 -33z m44 38 c3 -9 3 -19 -1
-22 -7 -7 -36 16 -36 28 0 15 30 10 37 -6z m633 1 c0 -18 -31 -29 -44 -16 -8
8 -7 14 4 20 22 14 40 12 40 -4z m-184 -43 c-12 -12 -29 15 -21 34 7 17 8 16
18 -5 5 -12 7 -25 3 -29z m90 22 c7 -29 1 -41 -15 -30 -14 8 -14 55 -1 55 5 0
12 -11 16 -25z m432 6 c3 -8 -1 -12 -9 -9 -7 2 -15 10 -17 17 -3 8 1 12 9 9 7
-2 15 -10 17 -17z m342 9 c0 -5 -4 -10 -10 -10 -5 0 -10 5 -10 10 0 6 5 10 10
10 6 0 10 -4 10 -10z m-1551 -14 c19 -22 -12 -42 -33 -21 -17 18 -13 35 8 35
8 0 19 -6 25 -14z m1311 -11 c0 -20 -29 -40 -41 -28 -15 15 7 54 26 47 8 -4
15 -12 15 -19z m-1175 6 c3 -5 1 -12 -5 -16 -5 -3 -10 1 -10 9 0 18 6 21 15 7z
m373 -19 c2 -12 -1 -22 -6 -22 -6 0 -17 -3 -26 -6 -21 -8 -32 22 -16 42 18 21
44 13 48 -14z m457 -2 c0 -18 -6 -26 -22 -28 -18 -3 -23 1 -23 21 0 28 9 39
30 35 9 -2 15 -14 15 -28z m195 15 c0 -8 -7 -15 -15 -15 -9 0 -12 6 -9 15 4 8
10 15 15 15 5 0 9 -7 9 -15z m527 -17 c-3 -7 -5 -2 -5 12 0 14 2 19 5 13 2 -7
2 -19 0 -25z m-1587 -9 c0 -18 -35 -5 -38 14 -3 16 -1 17 17 7 12 -6 21 -15
21 -21z m200 6 c12 -15 7 -45 -8 -45 -20 0 -45 28 -39 44 8 20 31 21 47 1z
m765 4 c12 -19 -4 -59 -24 -59 -23 0 -31 18 -20 48 9 23 33 30 44 11z m792
-11 c-3 -8 -6 -5 -6 6 -1 11 2 17 5 13 3 -3 4 -12 1 -19z m-1911 -19 c4 -7 -2
-9 -17 -7 -13 2 -25 11 -27 21 -3 16 -1 17 17 8 11 -6 23 -16 27 -22z m470 19
c4 -6 -3 -19 -16 -30 -28 -22 -36 -23 -44 -1 -12 30 44 58 60 31z m444 2 c0
-5 -4 -10 -9 -10 -6 0 -13 5 -16 10 -3 6 1 10 9 10 9 0 16 -4 16 -10z m678 -1
c-2 -6 -8 -10 -13 -10 -5 0 -11 4 -13 10 -2 6 4 11 13 11 9 0 15 -5 13 -11z
m82 -10 c0 -11 -4 -17 -10 -14 -5 3 -10 13 -10 21 0 8 5 14 10 14 6 0 10 -9
10 -21z m-1750 -20 c0 -20 -15 -26 -25 -9 -9 15 3 43 15 35 5 -3 10 -15 10
-26z m1325 21 c-3 -5 -10 -10 -16 -10 -5 0 -9 5 -9 10 0 6 7 10 16 10 8 0 12
-4 9 -10z m565 3 c-1 -18 -18 -35 -24 -24 -4 6 -4 16 -1 21 7 12 25 13 25 3z
m190 -36 c0 -5 -4 -5 -10 -2 -5 3 -10 14 -10 23 0 15 2 15 10 2 5 -8 10 -19
10 -23z m-1237 10 c3 -8 2 -19 -3 -26 -5 -10 -9 -8 -14 4 -3 9 -6 21 -6 26 0
14 17 11 23 -4z m436 -13 c9 -20 9 -30 0 -40 -30 -36 -72 3 -49 46 15 28 34
25 49 -6z m91 1 c0 -20 -5 -25 -25 -25 -27 0 -33 18 -13 38 20 20 38 14 38
-13z m85 15 c-3 -5 -11 -10 -16 -10 -6 0 -7 5 -4 10 3 6 11 10 16 10 6 0 7 -4
4 -10z m-1171 -6 c17 -7 21 -29 7 -39 -5 -3 -17 2 -25 11 -9 8 -14 20 -11 25
7 11 9 11 29 3z m674 -13 c3 -8 -1 -12 -9 -9 -7 2 -15 10 -17 17 -3 8 1 12 9
9 7 -2 15 -10 17 -17z m55 13 c8 -8 -3 -34 -14 -34 -5 0 -9 9 -9 20 0 19 11
26 23 14z m477 -14 c0 -21 -15 -27 -25 -10 -7 12 2 30 16 30 5 0 9 -9 9 -20z
m82 -2 c-7 -7 -12 -8 -12 -2 0 14 12 26 19 19 2 -3 -1 -11 -7 -17z m458 -3 c0
-8 -4 -15 -10 -15 -5 0 -10 7 -10 15 0 8 5 15 10 15 6 0 10 -7 10 -15z m-1352
-23 c4 -26 -26 -42 -38 -22 -9 15 10 52 25 47 5 -2 11 -13 13 -25z m102 12 c0
-8 -4 -12 -10 -9 -5 3 -10 10 -10 16 0 5 5 9 10 9 6 0 10 -7 10 -16z m280 -3
c0 -12 -20 -25 -27 -18 -7 7 6 27 18 27 5 0 9 -4 9 -9z m653 -5 c7 -19 -18
-40 -38 -32 -15 6 -20 28 -8 39 12 12 41 7 46 -7z m119 -18 c-9 -9 -12 -7 -12
12 0 19 3 21 12 12 9 -9 9 -15 0 -24z m-1637 12 c8 -13 -5 -13 -25 0 -13 8
-13 10 2 10 9 0 20 -4 23 -10z m1416 -5 c0 -5 -9 -11 -21 -13 -20 -3 -27 8
-13 22 10 9 34 3 34 -9z m359 0 c0 -8 -4 -15 -10 -15 -5 0 -10 7 -10 15 0 8 5
15 10 15 6 0 10 -7 10 -15z m-1600 -3 c0 -14 -11 -21 -26 -15 -21 8 -17 23 6
23 11 0 20 -4 20 -8z m105 -17 c0 -15 -8 -21 -32 -23 -35 -3 -44 13 -21 36 19
19 53 10 53 -13z m110 15 c9 -15 -14 -40 -36 -40 -27 0 -35 21 -14 37 22 16
41 17 50 3z m610 -20 c0 -38 -39 -35 -43 3 -3 25 0 28 20 25 17 -2 23 -9 23
-28z m-287 -3 c2 -10 -3 -17 -12 -17 -10 0 -16 9 -16 21 0 24 23 21 28 -4z
m202 7 c0 -11 -5 -14 -16 -10 -9 3 -18 6 -20 6 -3 0 -2 5 1 10 10 16 35 12 35
-6z m650 -6 c0 -18 -2 -20 -9 -8 -6 8 -7 18 -5 22 9 14 14 9 14 -14z m-410
-13 c0 -15 -14 -35 -25 -35 -16 0 -29 35 -20 50 6 9 45 -4 45 -15z m89 16 c14
-9 9 -41 -6 -41 -19 1 -35 19 -30 34 7 18 16 20 36 7z m-639 -11 c0 -5 -4 -10
-10 -10 -5 0 -10 5 -10 10 0 6 5 10 10 10 6 0 10 -4 10 -10z m197 -1 c11 -11
6 -49 -7 -49 -15 0 -32 30 -26 45 6 18 18 19 33 4z m543 -2 c0 -8 -11 -19 -25
-25 -20 -9 -25 -9 -25 1 0 17 20 37 37 37 7 0 13 -6 13 -13z m90 4 c0 -12 -20
-25 -27 -18 -7 7 6 27 18 27 5 0 9 -4 9 -9z m277 -17 c-9 -9 -28 6 -21 18 4 6
10 6 17 -1 6 -6 8 -13 4 -17z m-1649 10 c12 -4 22 -11 22 -16 0 -14 -53 -5
-58 10 -4 13 2 15 36 6z m92 -10 c0 -2 -9 -4 -21 -4 -11 0 -18 4 -14 10 5 8
35 3 35 -6z m518 -5 c-2 -6 -8 -10 -13 -10 -5 0 -11 4 -13 10 -2 6 4 11 13 11
9 0 15 -5 13 -11z m251 -5 c3 -2 -1 -10 -7 -16 -14 -14 -43 -1 -50 22 -4 10 3
11 24 6 16 -4 31 -10 33 -12z m1221 -4 c6 -11 7 -20 2 -20 -10 0 -32 21 -32
32 0 16 19 8 30 -12z m-1822 -2 c17 -17 15 -48 -4 -55 -8 -3 -22 1 -31 9 -12
12 -13 20 -4 37 13 24 22 26 39 9z m212 2 c0 -5 -2 -10 -4 -10 -3 0 -8 5 -11
10 -3 6 -1 10 4 10 6 0 11 -4 11 -10z m930 -4 c0 -16 -37 -32 -48 -21 -7 7 25
35 40 35 4 0 8 -6 8 -14z m145 -16 c-5 -8 -11 -8 -17 -2 -6 6 -7 16 -3 22 5 8
11 8 17 2 6 -6 7 -16 3 -22z m365 20 c0 -5 -11 -10 -25 -10 -14 0 -25 5 -25
10 0 6 11 10 25 10 14 0 25 -4 25 -10z m-1544 -45 c-3 -9 -14 -15 -23 -13 -22
4 -30 38 -11 49 18 11 43 -15 34 -36z m194 35 c0 -5 -4 -10 -10 -10 -5 0 -10
5 -10 10 0 6 5 10 10 10 6 0 10 -4 10 -10z m741 -13 c-13 -13 -26 -3 -16 12 3
6 11 8 17 5 6 -4 6 -10 -1 -17z m337 4 c3 -8 -1 -12 -9 -9 -7 2 -15 10 -17 17
-3 8 1 12 9 9 7 -2 15 -10 17 -17z m-1198 -10 c14 -27 13 -31 -10 -31 -15 0
-20 7 -20 25 0 30 15 33 30 6z m490 -37 c0 -23 -26 -16 -39 10 -19 35 -3 56
21 27 10 -13 18 -29 18 -37z m30 41 c0 -8 -4 -15 -10 -15 -5 0 -10 7 -10 15 0
8 5 15 10 15 6 0 10 -7 10 -15z m-900 -25 c0 -13 -37 -13 -45 0 -3 6 -3 15 0
20 7 12 45 -5 45 -20z m103 24 c11 -11 -5 -34 -24 -34 -18 0 -26 20 -12 33 8
9 28 9 36 1z m1300 -6 c6 -21 -4 -48 -19 -48 -16 0 -16 5 -8 38 7 24 20 29 27
10z m-453 -7 c0 -12 -20 -25 -27 -18 -7 7 6 27 18 27 5 0 9 -4 9 -9z m190 -5
c0 -22 -11 -46 -21 -46 -5 0 -9 14 -9 30 0 20 5 30 15 30 8 0 15 -6 15 -14z
m-1240 -6 c0 -5 -7 -10 -15 -10 -8 0 -15 5 -15 10 0 6 7 10 15 10 8 0 15 -4
15 -10z m610 -12 c0 -16 -3 -19 -11 -11 -6 6 -8 16 -5 22 11 17 16 13 16 -11z
m490 5 c0 -10 -5 -25 -10 -33 -13 -21 -34 2 -25 29 8 25 35 28 35 4z m640 2
c0 -8 -7 -15 -15 -15 -16 0 -20 12 -8 23 11 12 23 8 23 -8z m-972 -18 c2 -12
-3 -17 -17 -17 -12 0 -21 6 -21 13 0 31 32 34 38 4z m420 -1 c3 -12 -1 -17
-10 -14 -7 3 -15 13 -16 22 -3 12 1 17 10 14 7 -3 15 -13 16 -22z m82 9 c0 -8
-4 -15 -10 -15 -5 0 -10 7 -10 15 0 8 5 15 10 15 6 0 10 -7 10 -15z m58 -2 c2
-8 -5 -13 -17 -13 -12 0 -21 6 -21 16 0 18 31 15 38 -3z m84 2 c0 -5 -5 -11
-11 -13 -6 -2 -11 4 -11 13 0 9 5 15 11 13 6 -2 11 -8 11 -13z m150 0 c0 -5
-5 -11 -11 -13 -6 -2 -11 4 -11 13 0 9 5 15 11 13 6 -2 11 -8 11 -13z m466 -2
c5 -18 -20 -16 -44 2 -18 15 -18 15 10 13 16 -2 31 -9 34 -15z m-1100 -29
c-10 -10 -28 6 -28 24 0 15 1 15 17 -1 9 -9 14 -19 11 -23z m-58 12 c0 -16
-18 -31 -27 -22 -8 8 5 36 17 36 5 0 10 -6 10 -14z m270 -1 c0 -8 -4 -15 -10
-15 -5 0 -10 7 -10 15 0 8 5 15 10 15 6 0 10 -7 10 -15z m779 6 c9 -6 10 -10
2 -16 -15 -8 -41 1 -41 15 0 12 20 13 39 1z m-1776 -15 c4 -10 1 -13 -9 -9 -7
3 -14 9 -14 14 0 14 17 10 23 -5z m87 4 c0 -5 -4 -10 -10 -10 -5 0 -10 5 -10
10 0 6 5 10 10 10 6 0 10 -4 10 -10z m123 -11 c14 -22 2 -49 -22 -49 -27 0
-47 36 -30 56 15 18 38 15 52 -7z m1312 0 c-10 -15 -25 -10 -19 6 4 8 10 12
15 9 5 -3 7 -10 4 -15z m-1218 -5 c13 -33 -35 -70 -59 -46 -6 6 -8 22 -4 36 5
19 13 26 32 26 14 0 27 -7 31 -16z m1313 7 c0 -5 -6 -14 -14 -20 -16 -13 -32
2 -21 19 8 12 35 13 35 1z m-1251 -20 c6 -10 7 -21 4 -25 -9 -8 -33 14 -33 30
0 20 18 17 29 -5z m211 -1 c0 -11 -4 -20 -10 -20 -5 0 -10 2 -10 4 0 2 -3 11
-6 20 -4 11 -1 16 10 16 9 0 16 -8 16 -20z m308 8 c19 -19 14 -38 -12 -38 -26
0 -51 24 -41 40 8 14 38 13 53 -2z m952 -29 c0 -12 -21 -11 -40 1 -13 9 -13
11 0 19 15 10 40 -3 40 -20z m-1080 11 c0 -5 -4 -10 -10 -10 -5 0 -10 5 -10
10 0 6 5 10 10 10 6 0 10 -4 10 -10z m365 -9 c8 -25 -4 -53 -23 -49 -21 4 -36
32 -29 52 9 22 44 20 52 -3z m583 -21 c-2 -5 -9 -6 -17 -1 -9 6 -11 16 -7 27
7 18 8 18 17 1 6 -10 9 -22 7 -27z m220 28 c16 -16 15 -28 -2 -28 -17 0 -38
24 -29 33 9 10 17 9 31 -5z m-723 -22 c0 -22 -14 -29 -34 -17 -19 12 -6 43 16
39 10 -2 18 -12 18 -22z m-545 -1 c0 -8 -7 -15 -15 -15 -26 0 -18 20 13 29 1
1 2 -6 2 -14z m340 6 c0 -18 -18 -21 -30 -6 -10 13 -9 15 9 15 11 0 21 -4 21
-9z m300 -1 c0 -5 -4 -10 -10 -10 -5 0 -10 5 -10 10 0 6 5 10 10 10 6 0 10 -4
10 -10z m90 -20 c0 -20 -5 -30 -15 -30 -10 0 -15 10 -15 30 0 20 5 30 15 30
10 0 15 -10 15 -30z m70 15 c0 -8 -7 -15 -15 -15 -16 0 -20 12 -8 23 11 12 23
8 23 -8z m-670 -1 c0 -16 -23 -44 -35 -44 -21 0 -19 27 3 39 19 12 32 14 32 5z
m-642 -42 c2 -23 -1 -32 -12 -32 -20 0 -38 34 -30 55 11 28 39 13 42 -23z
m1487 28 c3 -5 1 -10 -4 -10 -6 0 -11 5 -11 10 0 6 2 10 4 10 3 0 8 -4 11 -10z
m-1565 -16 c0 -8 -5 -12 -10 -9 -6 4 -8 11 -5 16 9 14 15 11 15 -7z m180 -17
c0 -18 -31 -46 -46 -40 -18 7 -18 23 2 51 13 18 19 21 30 11 8 -6 14 -16 14
-22z m700 17 c0 -17 -22 -14 -28 4 -2 7 3 12 12 12 9 0 16 -7 16 -16z m339
-20 c-15 -19 -38 -18 -46 2 -8 21 16 35 40 23 14 -8 16 -13 6 -25z m259 20
c-9 -10 -24 -14 -33 -10 -23 9 -9 26 23 26 24 0 25 -1 10 -16z m-1204 0 c25
-10 19 -31 -10 -38 -31 -8 -49 5 -41 28 7 17 25 20 51 10z m356 -4 c0 -5 -4
-10 -10 -10 -5 0 -10 5 -10 10 0 6 5 10 10 10 6 0 10 -4 10 -10z m1210 0 c0
-5 -7 -10 -16 -10 -8 0 -12 5 -9 10 3 6 10 10 16 10 5 0 9 -4 9 -10z m-1344
-27 c-10 -10 -19 5 -10 18 6 11 8 11 12 0 2 -7 1 -15 -2 -18z m892 10 c2 -8
-5 -13 -17 -13 -12 0 -21 6 -21 16 0 18 31 15 38 -3z m331 -2 c6 -10 7 -21 4
-25 -9 -8 -33 14 -33 30 0 20 18 17 29 -5z m-919 -1 c0 -12 -28 -25 -36 -17
-9 9 6 27 22 27 8 0 14 -5 14 -10z m50 -10 c0 -11 -4 -20 -9 -20 -14 0 -23 18
-16 30 10 17 25 11 25 -10z m140 12 c0 -21 -28 -45 -45 -38 -17 6 -17 7 0 26
18 20 45 27 45 12z m145 -2 c-3 -5 -10 -10 -16 -10 -5 0 -9 5 -9 10 0 6 7 10
16 10 8 0 12 -4 9 -10z m635 0 c0 -5 -4 -10 -10 -10 -5 0 -10 5 -10 10 0 6 5
10 10 10 6 0 10 -4 10 -10z m-90 -21 c6 -11 10 -25 8 -31 -5 -14 -38 19 -38
38 0 21 18 17 30 -7z m138 2 c3 -8 -1 -12 -9 -9 -7 2 -15 10 -17 17 -3 8 1 12
9 9 7 -2 15 -10 17 -17z m-1254 -13 c3 -13 1 -27 -3 -31 -14 -14 -31 2 -31 29
0 30 26 32 34 2z m84 5 c-4 -23 -48 -31 -48 -10 0 9 6 18 13 20 25 11 38 7 35
-10z m838 -21 c-15 -15 -16 -15 -16 5 0 12 6 23 13 26 19 6 21 -13 3 -31z
m-475 -5 c-16 -16 -26 0 -10 19 9 11 15 12 17 4 2 -6 -1 -17 -7 -23z m49 8 c0
-16 -6 -25 -15 -25 -15 0 -21 31 -8 43 13 14 23 6 23 -18z m40 4 c0 -5 -4 -9
-10 -9 -5 0 -10 7 -10 16 0 8 5 12 10 9 6 -3 10 -10 10 -16z m140 11 c0 -5 -4
-10 -10 -10 -5 0 -10 5 -10 10 0 6 5 10 10 10 6 0 10 -4 10 -10z m-90 -15 c0
-8 -4 -15 -10 -15 -5 0 -10 7 -10 15 0 8 5 15 10 15 6 0 10 -7 10 -15z m130
-5 c-9 -17 -30 -28 -30 -16 0 16 15 36 26 36 12 0 12 -4 4 -20z m150 -6 c0 -8
-9 -14 -20 -14 -22 0 -26 10 -8 28 13 13 28 7 28 -14z m-1392 -11 c4 -24 -26
-40 -34 -18 -8 21 3 47 19 43 6 -3 13 -14 15 -25z m87 7 c17 -19 17 -21 0 -40
-24 -27 -43 -25 -51 5 -13 52 17 72 51 35z m328 14 c8 -8 -3 -34 -14 -34 -5 0
-9 9 -9 20 0 19 11 26 23 14z m287 -8 c0 -16 -27 -29 -41 -20 -13 8 9 34 27
34 8 0 14 -6 14 -14z m820 4 c0 -5 -4 -10 -10 -10 -5 0 -10 5 -10 10 0 6 5 10
10 10 6 0 10 -4 10 -10z m220 0 c0 -5 -7 -10 -15 -10 -8 0 -15 5 -15 10 0 6 7
10 15 10 8 0 15 -4 15 -10z m-1477 -17 c9 -9 -12 -33 -29 -33 -17 0 -18 27 -1
33 18 8 23 8 30 0z m622 -19 c0 -10 -8 -20 -17 -22 -18 -3 -26 27 -11 42 12
11 28 0 28 -20z m-695 2 c0 -17 -27 -28 -51 -21 -34 11 -22 35 16 35 23 0 35
-5 35 -14z m600 10 c0 -16 -14 -36 -25 -36 -17 0 -28 17 -20 30 6 10 45 15 45
6z m40 -12 c0 -8 -4 -12 -10 -9 -5 3 -10 10 -10 16 0 5 5 9 10 9 6 0 10 -7 10
-16z m650 1 c0 -8 -4 -15 -9 -15 -13 0 -22 16 -14 24 11 11 23 6 23 -9z m105
-6 c4 -11 4 -23 0 -27 -7 -7 -25 17 -25 36 0 20 18 14 25 -9z m140 12 c10 -18
-17 -23 -33 -7 -15 15 -15 16 5 16 12 0 24 -4 28 -9z m-1255 -20 c0 -11 -5
-23 -11 -27 -15 -9 -33 12 -26 30 9 23 37 20 37 -3z m700 5 c0 -8 -5 -18 -11
-22 -14 -8 -33 11 -25 25 10 16 36 13 36 -3z m630 4 c0 -5 -4 -10 -10 -10 -5
0 -10 5 -10 10 0 6 5 10 10 10 6 0 10 -4 10 -10z m-870 -10 c0 -5 -4 -10 -10
-10 -5 0 -10 5 -10 10 0 6 5 10 10 10 6 0 10 -4 10 -10z m-380 -31 c0 -11 -11
-11 -29 0 -7 5 -10 14 -6 20 5 9 10 9 21 0 8 -6 14 -15 14 -20z m45 20 c11
-17 -1 -21 -15 -4 -8 9 -8 15 -2 15 6 0 14 -5 17 -11z m395 -4 c0 -17 -22 -29
-41 -23 -8 3 -6 9 5 21 22 21 36 22 36 2z m688 -8 c2 -10 -3 -17 -12 -17 -10
0 -16 9 -16 21 0 24 23 21 28 -4z m-600 -4 c-2 -10 -12 -18 -23 -18 -11 0 -21
8 -23 18 -3 13 3 17 23 17 20 0 26 -4 23 -17z m162 8 c0 -5 -7 -12 -16 -15
-24 -9 -28 -7 -14 9 14 17 30 20 30 6z m314 -6 c3 -8 2 -15 -3 -15 -5 0 -14 7
-21 15 -10 12 -10 15 3 15 8 0 17 -7 21 -15z m-834 -9 c0 -18 -30 -30 -43 -17
-5 5 -6 14 -3 20 10 16 46 13 46 -3z m799 -14 c6 -11 6 -23 0 -33 -8 -12 -12
-11 -24 5 -8 11 -15 26 -15 33 0 19 28 16 39 -5z m-1539 4 c0 -3 -4 -8 -10
-11 -5 -3 -10 -1 -10 4 0 6 5 11 10 11 6 0 10 -2 10 -4z m50 -9 c0 -17 -38
-52 -47 -44 -9 10 18 57 34 57 7 0 13 -6 13 -13z m350 4 c0 -6 -4 -13 -10 -16
-5 -3 -10 1 -10 9 0 9 5 16 10 16 6 0 10 -4 10 -9z m540 -16 c0 -19 -25 -36
-44 -29 -21 8 -21 42 2 46 24 6 42 -2 42 -17z m-830 5 c0 -5 -4 -10 -10 -10
-5 0 -10 5 -10 10 0 6 5 10 10 10 6 0 10 -4 10 -10z m548 -2 c18 -18 15 -25
-14 -32 -34 -9 -52 7 -34 29 15 18 32 19 48 3z m182 -2 c0 -8 -7 -17 -16 -20
-19 -7 -47 12 -38 25 9 15 54 10 54 -5z m-532 -8 c-6 -18 -28 -21 -28 -4 0 9
7 16 16 16 9 0 14 -5 12 -12z m1319 -4 c3 -8 -1 -23 -10 -32 -15 -14 -17 -14
-23 1 -8 21 1 47 16 47 6 0 13 -7 17 -16z m-447 -3 c0 -12 -29 -35 -36 -28
-11 10 5 37 21 37 8 0 15 -4 15 -9z m120 -1 c0 -5 -7 -10 -16 -10 -8 0 -12 5
-9 10 3 6 10 10 16 10 5 0 9 -4 9 -10z m140 0 c0 -5 -4 -10 -10 -10 -5 0 -10
5 -10 10 0 6 5 10 10 10 6 0 10 -4 10 -10z m55 -1 c11 -17 -1 -21 -15 -4 -8 9
-8 15 -2 15 6 0 14 -5 17 -11z m-925 -26 c0 -7 -33 -32 -42 -33 -11 0 -30 39
-23 50 5 9 65 -7 65 -17z m510 -14 c-12 -22 -40 -26 -40 -4 0 15 30 36 42 29
5 -3 3 -14 -2 -25z m630 27 c0 -3 -4 -8 -10 -11 -5 -3 -10 -1 -10 4 0 6 5 11
10 11 6 0 10 -2 10 -4z m-1730 -20 c0 -18 -39 -31 -52 -18 -15 15 0 32 28 32
14 0 24 -6 24 -14z m275 4 c3 -6 -1 -7 -9 -4 -18 7 -21 14 -7 14 6 0 13 -4 16
-10z m959 -5 c-6 -16 -34 -21 -34 -7 0 13 11 22 26 22 8 0 11 -6 8 -15z m-818
-34 c-10 -15 -46 -14 -46 2 0 7 5 18 12 25 10 10 15 9 26 -2 8 -8 11 -19 8
-25z m81 24 c5 -14 -21 -44 -39 -45 -10 0 -20 38 -13 50 10 16 45 12 52 -5z
m293 1 c0 -13 -20 -26 -41 -26 -5 0 -9 9 -9 20 0 15 7 20 25 20 15 0 25 -6 25
-14z m95 -17 c0 -28 -29 -38 -39 -13 -7 19 11 47 28 41 6 -2 11 -14 11 -28z
m595 21 c0 -5 -4 -10 -10 -10 -5 0 -10 5 -10 10 0 6 5 10 10 10 6 0 10 -4 10
-10z m-1290 -14 c0 -8 -4 -17 -9 -21 -12 -7 -24 12 -16 25 9 15 25 12 25 -4z
m1385 1 c21 -16 13 -37 -15 -37 -19 0 -34 25 -24 41 7 12 17 11 39 -4z m-597
-19 c-5 -34 -38 -37 -38 -4 0 20 5 26 21 26 15 0 20 -5 17 -22z m-262 -3 c6
-15 -17 -45 -35 -45 -12 0 -15 43 -4 53 11 12 33 8 39 -8z m-87 -12 c11 -21
-3 -53 -24 -53 -10 0 -15 10 -15 28 0 43 21 57 39 25z m1021 7 c0 -5 -4 -10
-10 -10 -5 0 -10 5 -10 10 0 6 5 10 10 10 6 0 10 -4 10 -10z m-1600 -14 c0
-28 -12 -46 -31 -46 -22 0 -26 29 -7 48 16 16 38 15 38 -2z m486 -3 c20 -27
18 -63 -4 -63 -25 0 -47 47 -31 66 15 18 19 18 35 -3z m520 3 c6 -16 -12 -56
-25 -56 -15 0 -21 31 -11 51 13 22 28 25 36 5z m154 4 c0 -5 -5 -10 -11 -10
-5 0 -7 5 -4 10 3 6 8 10 11 10 2 0 4 -4 4 -10z m-72 -18 c2 -7 -6 -12 -17
-12 -21 0 -27 11 -14 24 9 9 26 2 31 -12z m-1468 -1 c0 -12 -29 -35 -36 -28
-11 10 5 37 21 37 8 0 15 -4 15 -9z m295 -16 c0 -13 -8 -21 -24 -23 -32 -5
-48 12 -31 33 18 22 55 15 55 -10z m289 10 c-4 -8 -12 -15 -20 -15 -8 0 -14 7
-14 15 0 8 9 15 20 15 13 0 18 -5 14 -15z m71 5 c7 -11 -12 -50 -24 -50 -11 0
-19 31 -14 48 5 14 29 16 38 2z m1175 -11 c0 -5 -7 -9 -15 -9 -15 0 -20 12 -9
23 8 8 24 -1 24 -14z m-716 -8 c14 -15 14 -20 3 -29 -19 -16 -53 9 -44 32 8
21 20 20 41 -3z m-924 -4 c0 -13 -39 -41 -47 -34 -2 3 0 15 7 26 12 23 40 29
40 8z m296 -24 c-11 -11 -19 6 -11 24 8 17 8 17 12 0 3 -10 2 -21 -1 -24z
m294 7 c0 -31 -16 -41 -26 -15 -8 19 2 45 16 45 5 0 10 -13 10 -30z m438 1 c4
-29 -15 -43 -40 -30 -18 10 -24 39 -11 53 15 15 48 1 51 -23z m84 2 c23 -21
23 -43 1 -43 -31 0 -46 16 -38 39 8 25 13 26 37 4z m168 -12 c0 -12 -29 -23
-41 -15 -18 10 -9 24 16 24 14 0 25 -4 25 -9z m-471 -14 c14 -17 -5 -37 -35
-37 -30 0 -36 22 -10 37 27 16 31 16 45 0z m-279 -7 c17 -10 14 -15 -17 -24
-25 -8 -42 12 -22 25 17 11 21 11 39 -1z m-510 -26 c0 -8 -4 -14 -9 -14 -11 0
-22 26 -14 34 9 9 23 -3 23 -20z m110 5 c0 -15 -5 -20 -22 -17 -34 5 -37 38
-4 38 20 0 26 -5 26 -21z m573 6 c-3 -13 -53 -20 -53 -7 0 15 13 23 35 20 11
-2 19 -7 18 -13z"/>
</g>
</svg>
